# xmcd CD database file
#
# Track frame offsets:
#	150
#	14080
#	27565
#	43985
#	59102
#	86037
#	106565
#	126510
#	138042
#	151015
#
# Disc length: 2222 seconds
#
# Revision: 3
# Processed by: cddbd v1.5.2PL0 Copyright (c) Steve Scherf et al.
# Submitted via: CDex 1.51
#
DISCID=8808ac0a
DTITLE=רמי פורטיס - פלונטר
DYEAR=1981
DGENRE=Rock
TTITLE0=דבש
TTITLE1=הדור הזה
TTITLE2=היא קילקלה את כולם
TTITLE3=למדי אותי הלילה
TTITLE4=המוות אינו מחוסר עבודה
TTITLE5=רד מעל מסך הטלוויזיה שלי
TTITLE6=שמש לך מצפים
TTITLE7=April Fools
TTITLE8=מחפש את עצמי
TTITLE9=אינקובטור
EXTD=fixed YEAR: 1981
EXTT0=
EXTT1=
EXTT2=
EXTT3=
EXTT4=
EXTT5=
EXTT6=
EXTT7=
EXTT8=
EXTT9=
PLAYORDER=
